<svg width="61" height="53" viewBox="0 0 61 53" fill="none" xmlns="http://www.w3.org/2000/svg">
<path d="M0.896484 11.2439C0.896484 7.93019 3.58278 5.2439 6.89648 5.2439H54.1037C57.4174 5.2439 60.1037 7.93019 60.1037 11.2439V46.5689C60.1037 49.8826 57.4174 52.5689 54.1037 52.5689H6.89648C3.58277 52.5689 0.896484 49.8826 0.896484 46.5689V11.2439Z" fill="#F25858"/>
<rect x="4.89844" y="8.45239" width="51.2062" height="40.908" fill="#69594E"/>
<path fill-rule="evenodd" clip-rule="evenodd" d="M27.2992 0.431152L30.4996 2.83751V47.7561L27.2992 45.3498V0.431152ZM4.89648 0.431152H27.2992V45.3498H4.89648V0.431152ZM33.7 0.431152L30.4996 2.83751V47.7561L33.7 45.3498V0.431152ZM33.7 0.431152H56.1027V45.3498H33.7V0.431152Z" fill="white"/>
<rect x="29.6992" y="5.2439" width="1.60019" height="37.6996" fill="#CECECF"/>
<rect x="36.9004" y="8.45239" width="14.4018" height="1.60423" fill="#CECECF"/>
<rect x="36.9004" y="12.4629" width="14.4018" height="1.60423" fill="#A5A7AA"/>
<rect x="36.9004" y="16.4735" width="14.4018" height="1.60423" fill="#CECECF"/>
<rect x="9.69727" y="29.3074" width="16.002" height="1.60423" fill="#CECECF"/>
<path fill-rule="evenodd" clip-rule="evenodd" d="M23.8365 9.51027C23.4931 9.16764 22.9381 9.16764 22.5947 9.51027L14.1865 17.9373C13.8824 18.287 13.9004 18.813 14.2276 19.141C14.5548 19.4691 15.0795 19.4871 15.4283 19.1822L23.8373 10.7552C24.1789 10.4107 24.1785 9.85429 23.8365 9.51027ZM22.5884 19.4774L20.6801 21.3904C20.376 21.7401 20.394 22.2661 20.7212 22.5942C21.0484 22.9222 21.5731 22.9402 21.9219 22.6353L23.8309 20.7247C24.073 20.5066 24.1752 20.1724 24.0968 19.8558C24.0184 19.5391 23.7721 19.2917 23.4564 19.2125C23.1407 19.1333 22.8063 19.2351 22.5884 19.4774ZM23.8437 14.4842C23.5003 14.1416 22.9453 14.1416 22.602 14.4842L19.0239 18.0697C18.7201 18.4195 18.7383 18.9456 19.0658 19.2734C19.3932 19.6012 19.9179 19.6188 20.2665 19.3138L23.8445 15.7283C24.1861 15.3838 24.1857 14.8282 23.8437 14.4842ZM13.8929 9.51589C13.5494 9.17272 12.9938 9.17272 12.6503 9.51589L10.7421 11.4281C10.438 11.7778 10.456 12.3038 10.7832 12.6319C11.1104 12.9599 11.6351 12.9779 11.9839 12.673L13.8929 10.76C14.2341 10.4158 14.2341 9.86003 13.8929 9.51589ZM15.2979 14.3342L18.8751 10.7471C19.1246 10.5309 19.2326 10.1931 19.1549 9.87177C19.0772 9.55047 18.8269 9.29967 18.5063 9.22199C18.1858 9.14432 17.8488 9.2528 17.6333 9.50305L14.0561 13.0893C13.8083 13.3059 13.7015 13.643 13.7794 13.9633C13.8572 14.2835 14.1067 14.5336 14.4261 14.6116C14.7456 14.6897 15.0818 14.5827 15.2979 14.3342Z" fill="#F25858"/>
<rect x="9.69727" y="33.318" width="16.002" height="1.60423" fill="#A5A7AA"/>
<rect x="9.69727" y="37.3286" width="16.002" height="1.60423" fill="#CECECF"/>
<rect x="36.9004" y="23.6926" width="14.4018" height="1.60423" fill="#CECECF"/>
<rect x="36.9004" y="28.5052" width="14.4018" height="1.60423" fill="#A5A7AA"/>
<rect x="36.9004" y="36.5265" width="14.4018" height="1.60423" fill="#A5A7AA"/>
<rect x="36.9004" y="32.5159" width="14.4018" height="1.60423" fill="#CECECF"/>
</svg>
